<?xml version="1.0" encoding="UTF-8" standalone="no"?><svg xmlns="http://www.w3.org/2000/svg" xmlns:xlink="http://www.w3.org/1999/xlink" contentScriptType="application/ecmascript" contentStyleType="text/css" height="329px" preserveAspectRatio="none" style="width:276px;height:329px;" version="1.1" viewBox="0 0 276 329" width="276px" zoomAndPan="magnify"><defs><filter height="300%" id="fe7785cru23i1" width="300%" x="-1" y="-1"><feGaussianBlur result="blurOut" stdDeviation="2.0"/><feColorMatrix in="blurOut" result="blurOut2" type="matrix" values="0 0 0 0 0 0 0 0 0 0 0 0 0 0 0 0 0 0 .4 0"/><feOffset dx="4.0" dy="4.0" in="blurOut2" result="blurOut3"/><feBlend in="SourceGraphic" in2="blurOut3" mode="normal"/></filter></defs><g><text fill="#000000" font-family="sans-serif" font-size="18" lengthAdjust="spacingAndGlyphs" textLength="252" x="12" y="26.708">Activity Diagram (Template)</text><ellipse cx="134.75" cy="40.9531" fill="#000000" filter="url(#fe7785cru23i1)" rx="10" ry="10" style="stroke: none; stroke-width: 1.0;"/><rect fill="#FEFECE" filter="url(#fe7785cru23i1)" height="33.9688" rx="12.5" ry="12.5" style="stroke: #A80036; stroke-width: 1.5;" width="121" x="74.25" y="70.9531"/><text fill="#000000" font-family="sans-serif" font-size="12" lengthAdjust="spacingAndGlyphs" textLength="101" x="84.25" y="92.0918">Receive request</text><polygon fill="#FEFECE" filter="url(#fe7785cru23i1)" points="118.25,124.9219,151.25,124.9219,163.25,136.9219,151.25,148.9219,118.25,148.9219,106.25,136.9219,118.25,124.9219" style="stroke: #A80036; stroke-width: 1.5;"/><text fill="#000000" font-family="sans-serif" font-size="11" lengthAdjust="spacingAndGlyphs" textLength="33" x="118.25" y="140.73">Valid?</text><text fill="#000000" font-family="sans-serif" font-size="11" lengthAdjust="spacingAndGlyphs" textLength="20" x="86.25" y="134.3276">yes</text><text fill="#000000" font-family="sans-serif" font-size="11" lengthAdjust="spacingAndGlyphs" textLength="14" x="163.25" y="134.3276">no</text><rect fill="#FEFECE" filter="url(#fe7785cru23i1)" height="33.9688" rx="12.5" ry="12.5" style="stroke: #A80036; stroke-width: 1.5;" width="70" x="45" y="158.9219"/><text fill="#000000" font-family="sans-serif" font-size="12" lengthAdjust="spacingAndGlyphs" textLength="50" x="55" y="180.0605">Process</text><rect fill="#FEFECE" filter="url(#fe7785cru23i1)" height="33.9688" rx="12.5" ry="12.5" style="stroke: #A80036; stroke-width: 1.5;" width="82" x="39" y="212.8906"/><text fill="#000000" font-family="sans-serif" font-size="12" lengthAdjust="spacingAndGlyphs" textLength="62" x="49" y="234.0293">Return OK</text><rect fill="#FEFECE" filter="url(#fe7785cru23i1)" height="33.9688" rx="12.5" ry="12.5" style="stroke: #A80036; stroke-width: 1.5;" width="97" x="141" y="158.9219"/><text fill="#000000" font-family="sans-serif" font-size="12" lengthAdjust="spacingAndGlyphs" textLength="77" x="151" y="180.0605">Return Error</text><polygon fill="#FEFECE" filter="url(#fe7785cru23i1)" points="134.75,252.8594,146.75,264.8594,134.75,276.8594,122.75,264.8594,134.75,252.8594" style="stroke: #A80036; stroke-width: 1.5;"/><ellipse cx="134.75" cy="307.8594" fill="#FFFFFF" filter="url(#fe7785cru23i1)" rx="11" ry="11" style="stroke: #000000; stroke-width: 1.0;"/><ellipse cx="134.75" cy="307.8594" fill="#000000" rx="6" ry="6" style="stroke: #7F7F7F; stroke-width: 1.0;"/><line style="stroke: #A80036; stroke-width: 1.5;" x1="134.75" x2="134.75" y1="50.9531" y2="70.9531"/><polygon fill="#A80036" points="130.75,60.9531,134.75,70.9531,138.75,60.9531,134.75,64.9531" style="stroke: #A80036; stroke-width: 1.0;"/><line style="stroke: #A80036; stroke-width: 1.5;" x1="80" x2="80" y1="192.8906" y2="212.8906"/><polygon fill="#A80036" points="76,202.8906,80,212.8906,84,202.8906,80,206.8906" style="stroke: #A80036; stroke-width: 1.0;"/><line style="stroke: #A80036; stroke-width: 1.5;" x1="106.25" x2="80" y1="136.9219" y2="136.9219"/><line style="stroke: #A80036; stroke-width: 1.5;" x1="80" x2="80" y1="136.9219" y2="158.9219"/><polygon fill="#A80036" points="76,148.9219,80,158.9219,84,148.9219,80,152.9219" style="stroke: #A80036; stroke-width: 1.0;"/><line style="stroke: #A80036; stroke-width: 1.5;" x1="163.25" x2="189.5" y1="136.9219" y2="136.9219"/><line style="stroke: #A80036; stroke-width: 1.5;" x1="189.5" x2="189.5" y1="136.9219" y2="158.9219"/><polygon fill="#A80036" points="185.5,148.9219,189.5,158.9219,193.5,148.9219,189.5,152.9219" style="stroke: #A80036; stroke-width: 1.0;"/><line style="stroke: #A80036; stroke-width: 1.5;" x1="80" x2="80" y1="246.8594" y2="264.8594"/><line style="stroke: #A80036; stroke-width: 1.5;" x1="80" x2="122.75" y1="264.8594" y2="264.8594"/><polygon fill="#A80036" points="112.75,260.8594,122.75,264.8594,112.75,268.8594,116.75,264.8594" style="stroke: #A80036; stroke-width: 1.0;"/><line style="stroke: #A80036; stroke-width: 1.5;" x1="189.5" x2="189.5" y1="192.8906" y2="264.8594"/><line style="stroke: #A80036; stroke-width: 1.5;" x1="189.5" x2="146.75" y1="264.8594" y2="264.8594"/><polygon fill="#A80036" points="156.75,260.8594,146.75,264.8594,156.75,268.8594,152.75,264.8594" style="stroke: #A80036; stroke-width: 1.0;"/><line style="stroke: #A80036; stroke-width: 1.5;" x1="134.75" x2="134.75" y1="104.9219" y2="124.9219"/><polygon fill="#A80036" points="130.75,114.9219,134.75,124.9219,138.75,114.9219,134.75,118.9219" style="stroke: #A80036; stroke-width: 1.0;"/><line style="stroke: #A80036; stroke-width: 1.5;" x1="134.75" x2="134.75" y1="276.8594" y2="296.8594"/><polygon fill="#A80036" points="130.75,286.8594,134.75,296.8594,138.75,286.8594,134.75,290.8594" style="stroke: #A80036; stroke-width: 1.0;"/><!--MD5=[031963a6a6ada6c5f17a180b8ab37908]
@startuml activity_flow
title Activity Diagram (Template)

start
:Receive request;
if (Valid?) then (yes)
  :Process;
  :Return OK;
else (no)
  :Return Error;
endif
stop

@enduml

PlantUML version 1.2020.02(Sun Mar 01 10:22:07 UTC 2020)
(GPL source distribution)
Java Runtime: OpenJDK Runtime Environment
JVM: OpenJDK 64-Bit Server VM
Java Version: 17.0.18+8
Operating System: Linux
Default Encoding: UTF-8
Language: en
Country: null
--></g></svg>