<?xml version="1.0" encoding="UTF-8" standalone="no"?><svg xmlns="http://www.w3.org/2000/svg" xmlns:xlink="http://www.w3.org/1999/xlink" contentScriptType="application/ecmascript" contentStyleType="text/css" height="345px" preserveAspectRatio="none" style="width:287px;height:345px;" version="1.1" viewBox="0 0 287 345" width="287px" zoomAndPan="magnify"><defs><filter height="300%" id="f1dpz4vddrbm85" width="300%" x="-1" y="-1"><feGaussianBlur result="blurOut" stdDeviation="2.0"/><feColorMatrix in="blurOut" result="blurOut2" type="matrix" values="0 0 0 0 0 0 0 0 0 0 0 0 0 0 0 0 0 0 .4 0"/><feOffset dx="4.0" dy="4.0" in="blurOut2" result="blurOut3"/><feBlend in="SourceGraphic" in2="blurOut3" mode="normal"/></filter></defs><g><text fill="#000000" font-family="sans-serif" font-size="18" lengthAdjust="spacingAndGlyphs" textLength="263" x="12" y="26.708">Sequence Diagram (Example)</text><line style="stroke: #A80036; stroke-width: 1.0; stroke-dasharray: 5.0,5.0;" x1="65.5" x2="65.5" y1="121.25" y2="257.7813"/><line style="stroke: #A80036; stroke-width: 1.0; stroke-dasharray: 5.0,5.0;" x1="121" x2="121" y1="121.25" y2="257.7813"/><line style="stroke: #A80036; stroke-width: 1.0; stroke-dasharray: 5.0,5.0;" x1="206.5" x2="206.5" y1="121.25" y2="257.7813"/><text fill="#000000" font-family="sans-serif" font-size="14" lengthAdjust="spacingAndGlyphs" textLength="32" x="46.5" y="117.9482">User</text><ellipse cx="65.5" cy="47.9531" fill="#FEFECE" filter="url(#f1dpz4vddrbm85)" rx="8" ry="8" style="stroke: #A80036; stroke-width: 2.0;"/><path d="M65.5,55.9531 L65.5,82.9531 M52.5,63.9531 L78.5,63.9531 M65.5,82.9531 L52.5,97.9531 M65.5,82.9531 L78.5,97.9531 " fill="none" filter="url(#f1dpz4vddrbm85)" style="stroke: #A80036; stroke-width: 2.0;"/><text fill="#000000" font-family="sans-serif" font-size="14" lengthAdjust="spacingAndGlyphs" textLength="32" x="46.5" y="269.7764">User</text><ellipse cx="65.5" cy="283.0781" fill="#FEFECE" filter="url(#f1dpz4vddrbm85)" rx="8" ry="8" style="stroke: #A80036; stroke-width: 2.0;"/><path d="M65.5,291.0781 L65.5,318.0781 M52.5,299.0781 L78.5,299.0781 M65.5,318.0781 L52.5,333.0781 M65.5,318.0781 L78.5,333.0781 " fill="none" filter="url(#f1dpz4vddrbm85)" style="stroke: #A80036; stroke-width: 2.0;"/><rect fill="#FEFECE" filter="url(#f1dpz4vddrbm85)" height="30.2969" style="stroke: #A80036; stroke-width: 1.5;" width="41" x="99" y="85.9531"/><text fill="#000000" font-family="sans-serif" font-size="14" lengthAdjust="spacingAndGlyphs" textLength="27" x="106" y="105.9482">App</text><rect fill="#FEFECE" filter="url(#f1dpz4vddrbm85)" height="30.2969" style="stroke: #A80036; stroke-width: 1.5;" width="41" x="99" y="256.7813"/><text fill="#000000" font-family="sans-serif" font-size="14" lengthAdjust="spacingAndGlyphs" textLength="27" x="106" y="276.7764">App</text><rect fill="#FEFECE" filter="url(#f1dpz4vddrbm85)" height="30.2969" style="stroke: #A80036; stroke-width: 1.5;" width="64" x="172.5" y="85.9531"/><text fill="#000000" font-family="sans-serif" font-size="14" lengthAdjust="spacingAndGlyphs" textLength="50" x="179.5" y="105.9482">Service</text><rect fill="#FEFECE" filter="url(#f1dpz4vddrbm85)" height="30.2969" style="stroke: #A80036; stroke-width: 1.5;" width="64" x="172.5" y="256.7813"/><text fill="#000000" font-family="sans-serif" font-size="14" lengthAdjust="spacingAndGlyphs" textLength="50" x="179.5" y="276.7764">Service</text><polygon fill="#A80036" points="109.5,148.3828,119.5,152.3828,109.5,156.3828,113.5,152.3828" style="stroke: #A80036; stroke-width: 1.0;"/><line style="stroke: #A80036; stroke-width: 1.0;" x1="65.5" x2="115.5" y1="152.3828" y2="152.3828"/><text fill="#000000" font-family="sans-serif" font-size="13" lengthAdjust="spacingAndGlyphs" textLength="27" x="72.5" y="147.3169">click</text><polygon fill="#A80036" points="194.5,177.5156,204.5,181.5156,194.5,185.5156,198.5,181.5156" style="stroke: #A80036; stroke-width: 1.0;"/><line style="stroke: #A80036; stroke-width: 1.0;" x1="121.5" x2="200.5" y1="181.5156" y2="181.5156"/><text fill="#000000" font-family="sans-serif" font-size="13" lengthAdjust="spacingAndGlyphs" textLength="61" x="128.5" y="176.4497">execute()</text><polygon fill="#A80036" points="132.5,206.6484,122.5,210.6484,132.5,214.6484,128.5,210.6484" style="stroke: #A80036; stroke-width: 1.0;"/><line style="stroke: #A80036; stroke-width: 1.0; stroke-dasharray: 2.0,2.0;" x1="126.5" x2="205.5" y1="210.6484" y2="210.6484"/><text fill="#000000" font-family="sans-serif" font-size="13" lengthAdjust="spacingAndGlyphs" textLength="15" x="138.5" y="205.5825">ok</text><polygon fill="#A80036" points="76.5,235.7813,66.5,239.7813,76.5,243.7813,72.5,239.7813" style="stroke: #A80036; stroke-width: 1.0;"/><line style="stroke: #A80036; stroke-width: 1.0; stroke-dasharray: 2.0,2.0;" x1="70.5" x2="120.5" y1="239.7813" y2="239.7813"/><text fill="#000000" font-family="sans-serif" font-size="13" lengthAdjust="spacingAndGlyphs" textLength="32" x="82.5" y="234.7153">done</text><!--MD5=[308c7d1613a5b04a61a35ec4e044689d]
@startuml sequence_execute
title Sequence Diagram (Example)

actor User
participant App
participant Service

User -> App : click
App -> Service : execute()
Service - -> App : ok
App - -> User : done

@enduml

PlantUML version 1.2020.02(Sun Mar 01 10:22:07 UTC 2020)
(GPL source distribution)
Java Runtime: OpenJDK Runtime Environment
JVM: OpenJDK 64-Bit Server VM
Java Version: 17.0.18+8
Operating System: Linux
Default Encoding: UTF-8
Language: en
Country: null
--></g></svg>